<?xml version="1.0" standalone="no"?><!DOCTYPE svg PUBLIC "-//W3C//DTD SVG 1.1//EN" "http://www.w3.org/Graphics/SVG/1.1/DTD/svg11.dtd"><svg class="icon" width="200px" height="200.00px" viewBox="0 0 1024 1024" version="1.1" xmlns="http://www.w3.org/2000/svg"><path d="M857.088 826.4192a22.8352 22.8352 0 0 1 13.5168-1.792c3.9424 1.2288 6.1952 4.1984 6.1952 9.5232a28.9792 28.9792 0 0 1-7.8848 18.432c-4.4544 5.9392-12.3392 13.6704-23.04 24.3712-11.264 10.1376-27.4944 23.1936-50.5344 38.0928-22.528 14.848-47.2064 29.1328-74.752 41.6256a502.4256 502.4256 0 0 1-99.4816 32.6656 547.328 547.328 0 0 1-121.344 13.7216 482.7648 482.7648 0 0 1-125.952-17.2544c-42.0864-11.9296-78.6432-25.6-110.6432-42.8032a753.5616 753.5616 0 0 1-91.648-58.3168c-29.184-22.016-52.224-41.6256-70.1952-58.88-17.408-17.2032-32.0512-33.8944-44.3904-49.3056a21.0944 21.0944 0 0 1-5.12-8.96 10.496 10.496 0 0 1 0.6144-7.168c1.1264-2.3552 2.2528-2.9184 3.9424-3.5328 1.6896-1.1776 3.3792-1.792 6.144-1.1776a19.456 19.456 0 0 1 6.1952 2.3552c67.4304 44.032 120.832 74.9568 158.464 92.7744 137.1136 65.4336 278.1696 82.0736 422.6048 49.9712 66.8672-13.6704 135.9872-39.2704 207.36-74.3424zM966.144 761.6c3.9424 5.9392 4.5056 18.432 1.6896 39.2704a243.0464 243.0464 0 0 1-15.1552 57.088c-12.3904 30.9248-26.9824 54.1184-44.9536 69.5808-6.1952 5.3248-10.7008 7.1168-13.5168 4.7104-2.816-1.7408-2.816-6.5024 0-13.056 7.3216-16.64 15.2064-39.2704 23.6032-67.7888 7.8848-28.5696 9.5744-47.0016 3.3792-55.296a22.9376 22.9376 0 0 0-7.8848-6.5536 42.0864 42.0864 0 0 0-14.0288-2.9696 437.3504 437.3504 0 0 1-15.7184-1.792 94.8224 94.8224 0 0 0-18.5344 0c-7.3216 0.6144-12.9536 0.6144-16.896 1.1776a175.616 175.616 0 0 1-16.2816 1.792c-7.3216 0.6144-11.776 1.1776-12.3392 1.1776-2.2528 0.6144-4.5056 0.6144-7.3216 1.2288-2.2528 0-4.5056 0.5632-6.144 0.5632-1.7408 0-2.8672 0.6144-4.5568 0.6144-1.6896 0-2.816 0.5632-3.3792 0.5632h-5.0176s-0.5632 0-1.6896-0.5632c-1.1264 0-1.6896-0.6144-1.1264-1.1776l-1.1264-1.792c-2.2528-5.9392 6.144-13.1072 24.7296-22.6304a167.6288 167.6288 0 0 1 54.4768-16.64 254.464 254.464 0 0 1 56.7808-0.5632c22.4768 2.3552 36.5056 7.1168 41.0112 13.056zM765.5424 549.888c4.5056 12.4928 10.6496 23.1936 17.408 32.768 6.7584 8.8576 12.9536 17.8176 19.6608 25.5488 6.7584 7.68 12.3904 13.6704 17.408 18.432l7.3216 6.5024-120.832 124.928c-14.0288-13.7216-27.4944-27.9552-42.1376-42.24-13.4656-14.2848-24.1664-24.9856-30.8736-32.7168l-10.1376-11.264a113.152 113.152 0 0 1-12.9024-18.432 211.968 211.968 0 0 1-51.712 57.0368c-21.3504 16.0768-43.264 28.5696-67.4304 35.6864a278.016 278.016 0 0 1-74.1888 13.1072 166.656 166.656 0 0 1-72.4992-11.9296 225.7408 225.7408 0 0 1-61.7984-36.864c-17.9712-15.4624-32.6144-36.2496-43.8272-62.976-11.264-26.7776-16.3328-57.1392-16.3328-91.0336 0-31.488 5.12-60.0576 14.6432-86.2208 10.0864-26.112 22.4768-48.128 38.1952-65.3824 15.7184-17.2544 34.304-32.768 56.7808-46.3872a461.824 461.824 0 0 1 64.6144-32.1536c21.3504-7.68 43.8272-13.6704 68.5568-18.9952 24.7296-5.376 46.08-8.3456 62.976-10.1376 17.408-1.792 34.816-2.3552 52.224-3.584V221.696c0-23.7568-3.3792-42.1888-11.264-54.6816-12.3392-19.6608-33.1264-29.7472-64-29.7472-2.304 0-5.12 0-8.448 0.6144a148.5824 148.5824 0 0 0-20.8384 7.1168c-11.264 4.1472-20.7872 9.5232-29.7472 16.64-9.0112 7.168-19.0976 18.432-29.7984 33.28-10.7008 15.5136-19.0976 33.3312-25.2928 54.1696l-155.648-14.848c0-22.6304 3.9424-44.6464 11.776-66.6624 7.3216-22.016 19.712-43.3664 35.4304-62.976 15.7184-20.2752 34.816-38.0928 56.7296-53.5552 21.9136-15.4624 48.896-27.9552 80.384-36.864a366.3872 366.3872 0 0 1 101.12-13.6704c35.4304 0 66.9184 4.7616 96.1024 13.6704 28.672 8.9088 51.712 20.7872 68.608 33.8944 17.408 13.056 31.4368 29.1328 42.6496 46.3872 11.8272 17.8176 19.1488 33.8944 23.6032 48.128 4.5056 14.336 6.7584 28.5696 6.7584 41.0624l-0.512 330.6496c0 11.8784 2.2016 23.7568 7.2704 35.6352z m-363.008-24.3712c0 32.1024 12.3392 57.088 37.0688 74.3424 23.04 16.64 47.7696 20.224 73.6256 12.4928 29.7984-8.9088 50.0224-32.1024 60.672-68.9664 5.0688-16.6912 7.3216-35.6864 7.3216-56.5248V395.8784c-20.7872 0.6144-40.448 2.9696-58.4704 7.168-17.92 3.584-37.0688 10.0864-56.7296 18.432-19.0976 8.9088-34.816 22.016-46.08 39.8336-11.776 17.8176-17.408 39.2192-17.408 64.2048z" /></svg>