<?xml version="1.0" standalone="no"?><!DOCTYPE svg PUBLIC "-//W3C//DTD SVG 1.1//EN" "http://www.w3.org/Graphics/SVG/1.1/DTD/svg11.dtd"><svg class="icon" width="200px" height="200.00px" viewBox="0 0 1024 1024" version="1.1" xmlns="http://www.w3.org/2000/svg"><path d="M145.92 1024A148.736 148.736 0 0 1 0 878.464V145.28A148.736 148.736 0 0 1 146.176 0h738.176A143.872 143.872 0 0 1 1024 145.152v733.568A143.872 143.872 0 0 1 884.224 1024z m0-942.848a64.768 64.768 0 0 0-61.824 64v733.568a64.896 64.896 0 0 0 61.824 64h738.432a64.896 64.896 0 0 0 62.336-64v-733.44a64.768 64.768 0 0 0-61.696-64H145.408z m604.544 730.752a68.608 68.608 0 0 1-68.864-66.816V278.528a68.608 68.608 0 0 1 68.864-66.432h12.032v-1.792a64 64 0 0 1 52.992 65.664v469.504a64.896 64.896 0 0 1-17.92 46.976 64 64 0 0 1-45.952 19.456z m-238.464 0a68.48 68.48 0 0 1-64-66.688V486.4a67.712 67.712 0 0 1 64-64h11.136v-1.024A69.376 69.376 0 0 1 582.272 486.4v259.072a68.608 68.608 0 0 1-68.992 66.432z m-233.6 0a64 64 0 0 1-64-66.048v-51.2a64 64 0 0 1 64-64 69.888 69.888 0 0 1 70.144 64v49.664a68.48 68.48 0 0 1-68.864 66.432z" /></svg>