<?xml version="1.0" standalone="no"?><!DOCTYPE svg PUBLIC "-//W3C//DTD SVG 1.1//EN" "http://www.w3.org/Graphics/SVG/1.1/DTD/svg11.dtd"><svg class="icon" width="200px" height="200.00px" viewBox="0 0 1024 1024" version="1.1" xmlns="http://www.w3.org/2000/svg"><path d="M228.91760064 301.7505188c-60.85876465 0-110.43087959 49.51186179-110.4308796 110.43010712 0 60.85799217 49.57134248 110.43087959 110.43087959 110.43087959 60.91747284 0 110.42933464-49.57288742 110.42933465-110.43087959 0-60.91824532-49.51186179-110.43010712-110.42933465-110.43010712z m-1e-8 153.51264953c-23.84479522-0.03398896-43.14434051-19.38915253-43.10957909-43.23394775 0.03012657-23.83938789 19.38529014-43.14279556 43.23008538-43.10803413 23.84016037 0.03398896 43.14356804 19.389925 43.10803412 43.23008537-0.03398896 23.84325027-19.38915253 43.14279556-43.22854041 43.11189651z m0-180.87607383c20.93024254 0 37.86214829-16.98675156 37.86214829-37.86214828V155.52386474c0-20.90938567-16.9527626-37.86214829-37.86214829-37.86214828-20.91015816 0-37.86292075 16.9527626-37.86292076 37.86214828v81.06210709c0 20.9348774 16.98829651 37.86214829 37.86292076 37.86214828m0 276.56192781a37.85596848 37.85596848 0 0 0-37.86292076 37.85751341v279.7167206c0 20.9086132 16.9527626 37.85751343 37.86292076 37.85751342 20.90938567 0 37.86214829-16.94812775 37.86214829-37.85751342V588.86756133c0-20.90938567-16.9527626-37.85751343-37.86214829-37.85751341m283.83865356-147.56535531c-60.91824532 0-110.43010712 49.51186179-110.43010711 110.43010712 0 60.8572197 49.51186179 110.42933464 110.43010711 110.42933464 60.8572197 0 110.42933464-49.57211495 110.42933465-110.42933464 0-60.9190178-49.57211495-110.43010712-110.42933465-110.43010712z m0 153.50801469c-23.84016037 0-43.16905975-19.32889939-43.16905975-43.16828728 0-23.84556771 19.32812691-43.16983223 43.16905975-43.16983223 23.84402275 0 43.16905975 19.32426453 43.16905976 43.16983223-0.00077248 23.83938789-19.32503701 43.16828728-43.16905976 43.16828728z m0-182.6334572c20.87076187 0 37.86214829-16.98752403 37.86214829-37.86214827V154.43390083c0-20.90938567-16.9527626-37.86214829-37.86214829-37.86214829s-37.86137581 16.9527626-37.8613758 37.86214829v182.02397347c-0.00077248 20.87385178 16.99061393 37.86137581 37.8613758 37.8613758m0 280.80745698a37.855196 37.855196 0 0 0-26.77170753 11.08812332 37.87373542 37.87373542 0 0 0-11.08966827 26.77402497v174.5618534c0 20.9086132 16.9527626 37.86214829 37.8613758 37.86214829s37.86214829-16.9527626 37.86214829-37.86214829V692.98885537a37.87219047 37.87219047 0 0 0-11.09121322-26.77402497 37.85596848 37.85596848 0 0 0-26.77093507-11.08812332M796.53388214 499.67514229c-60.8572197 0-110.42933464 49.57365989-110.42933463 110.43010712 0 60.9190178 49.57211495 110.42933464 110.42933462 110.42933463 60.91824532 0 110.43010712-49.51031685 110.43010712-110.42933463 0-60.85644722-49.51186179-110.43010712-110.43010711-110.43010712z m-1e-8 153.50878716a43.14202309 43.14202309 0 0 1-37.26888655-64.76285936 43.13893318 43.13893318 0 0 1 37.39016532-21.51577949c23.84402275 0.03167152 43.14356804 19.38606262 43.11344147 43.23008538-0.03476143 23.84556771-19.389925 43.14356804-43.23472024 43.11035156v-0.06179809z m0-182.14525223c20.93564988 0 37.86214829-16.99138642 37.8621483-37.86214829V154.4933815A37.85287857 37.85287857 0 0 0 815.46495628 121.70640183a37.84129143 37.84129143 0 0 0-37.86214828 0 37.855196 37.855196 0 0 0-18.93107414 32.78697967V433.17652893c0 20.93101502 16.99138642 37.86214829 37.86214827 37.86214829m0 280.80359458a37.84592629 37.84592629 0 0 0-26.77016257 11.09044076 37.85905838 37.85905838 0 0 0-11.09121324 26.77093505v77.84551621a37.85442352 37.85442352 0 0 0 18.93107415 32.78697968 37.84515381 37.84515381 0 0 0 37.86214829 0 37.85365104 37.85365104 0 0 0 18.93107415-32.78697968V789.70442009c-0.00077248-20.9086132-16.95353508-37.86214829-37.86292078-37.86214829" /></svg>