<?xml version="1.0" standalone="no"?><!DOCTYPE svg PUBLIC "-//W3C//DTD SVG 1.1//EN" "http://www.w3.org/Graphics/SVG/1.1/DTD/svg11.dtd"><svg class="icon" width="200px" height="171.52px" viewBox="0 0 1194 1024" version="1.1" xmlns="http://www.w3.org/2000/svg"><path d="M175.786667 0c117.162667 0 175.786667 58.624 175.786666 175.786667v672.426666c0 117.162667-58.624 175.786667-175.786666 175.786667S0 965.376 0 848.213333V175.786667C0 58.624 58.624 0 175.786667 0zM596.48 0c117.162667 0 175.786667 58.624 175.786667 175.786667v672.426666c0 117.162667-58.624 175.786667-175.786667 175.786667s-175.786667-58.624-175.786667-175.786667V175.786667C420.693333 58.624 479.317333 0 596.48 0zM1017.173333 102.4c41.472 0 75.093333 33.621333 75.093334 75.093333v669.013334a75.093333 75.093333 0 1 1-150.186667 0V177.493333c0-41.472 33.621333-75.093333 75.093333-75.093333m0-102.4a177.493333 177.493333 0 0 0-177.493333 177.493333v669.013334a177.493333 177.493333 0 1 0 354.986667 0V177.493333A177.493333 177.493333 0 0 0 1017.173333 0z" /></svg>