<?xml version="1.0" standalone="no"?><!DOCTYPE svg PUBLIC "-//W3C//DTD SVG 1.1//EN" "http://www.w3.org/Graphics/SVG/1.1/DTD/svg11.dtd"><svg class="icon" width="200px" height="200.00px" viewBox="0 0 1024 1024" version="1.1" xmlns="http://www.w3.org/2000/svg"><path d="M910.129 336.822L518.841 117.66a16.966 16.966 0 0 0-16.412 0L113.871 335.308a16.84 16.84 0 0 0-8.604 14.675 16.829 16.829 0 0 0 8.604 14.667s396.688 221.355 399.521 221.355c2.842 0 396.76-219.849 396.76-219.849a16.858 16.858 0 0 0 8.581-14.667 16.825 16.825 0 0 0-8.604-14.667zM513.385 549.94L156.447 349.983l354.192-198.384 356.898 199.89L513.385 549.94z m0.008 151.224L130.284 486.527l-16.413 29.347s396.688 221.363 399.521 221.363c2.842 0 396.76-219.847 396.76-219.847l-16.448-29.347-380.311 213.121z m0 151.228L130.284 637.759l-16.413 29.339s396.688 221.359 399.521 221.359c2.842 0 396.76-219.84 396.76-219.84l-16.448-29.347-380.311 213.122z" /></svg>