<?xml version="1.0" standalone="no"?><!DOCTYPE svg PUBLIC "-//W3C//DTD SVG 1.1//EN" "http://www.w3.org/Graphics/SVG/1.1/DTD/svg11.dtd"><svg class="icon" width="200px" height="200.00px" viewBox="0 0 1024 1024" version="1.1" xmlns="http://www.w3.org/2000/svg"><path d="M258.368 516.672v-209.92h51.2V435.84c25.216-29.952 59.84-38.656 93.952-38.656 57.216 0 120.704 38.592 120.704 121.856 0 9.92-0.64 19.456-2.56 28.48 10.24-40.64 54.4-55.68 123.52-57.344 21.76-0.64 46.72-0.64 66.56-0.64v-5.76c0-37.76-23.68-53.12-65.28-53.12-30.72 0-53.12 12.8-55.68 34.56h-54.4c5.76-55.04 64-69.12 114.56-69.12 45.44 0 85.12 11.52 103.04 43.52l-18.56-35.84h60.16l87.68 176 87.68-176H1024l-158.72 311.68h-57.408l45.632-87.04-99.392-186.88c5.504 10.88 8.576 23.68 8.576 39.68v104.96c0 14.72 0.448 29.44 1.728 42.88H716.8c-1.28-10.88-1.92-21.76-1.92-32.64-25.728 31.36-56.32 40.96-99.008 40.96-63.168 0-96.96-33.28-96.96-72.32 0-6.4 0.64-12.16 1.6-17.28-12.8 53.12-58.048 88.96-117.952 88.96-37.12 0-72.32-13.44-93.888-39.68 0 10.24-0.64 21.12-1.728 31.36H256.64c0.832-16.64 1.728-36.48 1.728-53.12v-44.8H52.288c2.752 46.72 34.88 74.24 79.04 74.24 30.592 0 57.792-12.8 66.88-39.68h52.928c-10.24 55.04-68.736 73.6-119.04 73.6C40.576 639.36 0 588.8 0 520.96 0 446.08 41.92 396.8 132.928 396.8c72.064 0 124.992 37.76 125.44 119.68z m389.888 7.808c-46.72 1.472-75.52 9.92-75.52 40.512 0 19.84 15.36 41.408 55.68 41.408 53.76 0 82.56-29.44 82.56-77.44V523.52c-19.2 0-42.24 0.256-63.36 0.96z m-258.56 80c47.36 0 80-34.368 80-86.208 0-51.84-32.64-86.08-80.64-86.08-47.36 0-80.64 34.304-80.64 86.08 0 51.84 32.64 86.144 80 86.144z m-185.6-107.328c-1.92-48-36.48-65.92-73.6-65.92-40.32 0-72.32 20.16-77.44 65.92h151.04z" /></svg>