<?xml version="1.0" standalone="no"?><!DOCTYPE svg PUBLIC "-//W3C//DTD SVG 1.1//EN" "http://www.w3.org/Graphics/SVG/1.1/DTD/svg11.dtd"><svg class="icon" width="200px" height="200.00px" viewBox="0 0 1024 1024" version="1.1" xmlns="http://www.w3.org/2000/svg"><path d="M229.2 69.824c-20.928 0-34.8 12.368-34.8 23.264v292.368H683.2c25.632 0 46.4 20.832 46.4 46.544v359.28a46.48 46.48 0 0 1-46.4 46.544H194.4v93.088c0 10.88 13.872 23.264 34.8 23.264h690.4c20.928 0 34.8-12.368 34.8-23.264V303.184h-137.6c-51.248 0-92.8-41.68-92.8-93.088V73.072l-494.8-3.248z m0-69.824l529.696 3.584L1024 278.672v652.24C1024 982.336 977.28 1024 919.6 1024h-690.4C171.52 1024 124.8 982.336 124.8 930.912v-93.088H46.4a46.48 46.48 0 0 1-46.4-46.56V432a46.48 46.48 0 0 1 46.4-46.56h78.4V93.104C124.8 41.664 171.52 0 229.2 0z m241.792 480H405.12l-52.672 82.608-52.688-82.56h-65.872l88.912 127.36L224 752h65.872l62.56-99.84L415.04 752h65.872l-98.816-144.576L470.992 480z" /></svg>