<?xml version="1.0" standalone="no"?><!DOCTYPE svg PUBLIC "-//W3C//DTD SVG 1.1//EN" "http://www.w3.org/Graphics/SVG/1.1/DTD/svg11.dtd"><svg class="icon" width="200px" height="200.00px" viewBox="0 0 1024 1024" version="1.1" xmlns="http://www.w3.org/2000/svg"><path d="M726.2 153.8h-6.4c-19.2-51.2-64-89.5-121.5-89.5h-179c-57.6 0-102.3 38.4-121.5 89.5h-6.4c-70.3 0-134.3 57.6-134.3 134.3v537.2c0 76.7 57.6 134.3 134.3 134.3h441.3C803 959.6 867 902 867 825.3V288.1c-6.5-70.4-64-134.3-140.8-134.3z m-306.9 0h179.1c25.6 0 44.8 19.2 44.8 44.8s-19.2 44.8-44.8 44.8H425.7c-25.6 0-44.8-19.2-44.8-44.8-6.4-25.7 12.8-44.8 38.4-44.8zM771 825.3c0 25.6-19.2 44.8-44.8 44.8H285c-25.6 0-44.8-19.2-44.8-44.8V288.1c0-25.6 19.2-44.8 44.8-44.8h6.4c19.2 51.2 64 89.5 121.5 89.5H592c57.6 0 102.3-38.4 121.5-89.5h6.4c25.6 0 44.8 19.2 44.8 44.8l6.3 537.2zM329.7 511.9h351.7v-89.5H329.7v89.5z m0 134.3h351.7v-89.5H329.7v89.5z m0 134.3h262.2V691H329.7v89.5z" /></svg>