<?xml version="1.0" standalone="no"?><!DOCTYPE svg PUBLIC "-//W3C//DTD SVG 1.1//EN" "http://www.w3.org/Graphics/SVG/1.1/DTD/svg11.dtd"><svg class="icon" width="200px" height="200.00px" viewBox="0 0 1024 1024" version="1.1" xmlns="http://www.w3.org/2000/svg"><path d="M562.944 476.48h192v73.024a7.68 7.68 0 0 0 11.392 6.848l160-111.872c4.544-2.304 4.544-9.152 0-13.696l-160-111.872a7.68 7.68 0 0 0-11.392 6.848v66.24H574.208l212.288-237.376c9.152-27.392 4.544-45.632-16-57.088s-41.088-4.544-64 16L512.768 328.128l-192-214.528c-20.544-20.544-41.088-27.392-61.632-16a48.384 48.384 0 0 0-22.848 57.088l205.44 237.376H161.28a43.392 43.392 0 1 0 0 86.72h299.008v164.352H266.24V576.896a7.68 7.68 0 0 0-11.392-6.848l-160 111.872c-4.544 2.304-4.544 9.152 0 13.696l160 111.872a7.68 7.68 0 0 0 11.392-6.848v-73.088h194.048v175.744c0 41.088 16 61.632 52.48 61.632s52.48-20.544 50.24-61.632v-175.744h296.704a43.392 43.392 0 1 0 0-86.72H562.944z" /></svg>