<?xml version="1.0" standalone="no"?><!DOCTYPE svg PUBLIC "-//W3C//DTD SVG 1.1//EN" "http://www.w3.org/Graphics/SVG/1.1/DTD/svg11.dtd"><svg class="icon" width="200px" height="200.00px" viewBox="0 0 1024 1024" version="1.1" xmlns="http://www.w3.org/2000/svg"><path d="M896 127.872H128c-35.2 0-64 28.8-64 64V704c0 35.2 28.8 64 64 64h64.192v0.256h32c1.792 0 3.328-0.704 5.056-1.024 2.048-0.32 4.032-0.448 5.952-1.152a28.288 28.288 0 0 0 6.912-3.904c1.152-0.768 2.304-1.344 3.328-2.24a30.784 30.784 0 0 0 5.504-6.976c0.512-0.832 1.344-1.408 1.856-2.368l0.832-1.6 0.128-0.256 99.456-197.632 40.64 80.384a32.064 32.064 0 0 0 42.944 14.272 31.232 31.232 0 0 0 12.672-12.608c0.768-1.216 1.984-2.112 2.624-3.456l153.728-247.424A63.168 63.168 0 0 0 661.568 320a64 64 0 0 0-128 0 62.72 62.72 0 0 0 13.056 36.864L425.344 552l-43.648-86.464c-0.512-1.024-1.408-1.6-1.984-2.56a31.168 31.168 0 0 0-4.416-5.632 33.92 33.92 0 0 0-4.48-3.52c-1.152-0.768-1.984-1.92-3.264-2.56-0.832-0.384-1.728-0.32-2.496-0.64a29.44 29.44 0 0 0-5.76-1.536 29.504 29.504 0 0 0-6.144-0.832 28.416 28.416 0 0 0-6.144 0.832 30.656 30.656 0 0 0-5.76 1.536c-0.832 0.32-1.728 0.256-2.496 0.64-1.28 0.64-2.112 1.792-3.264 2.56a29.312 29.312 0 0 0-4.48 3.52 31.552 31.552 0 0 0-4.416 5.696c-0.576 0.896-1.472 1.536-1.984 2.496l-120.128 238.656h-12.288V704H160a32.064 32.064 0 0 1-32-32v-448c0-17.6 14.4-32 32-32h704c17.6 0 32 14.4 32 32v448c0 17.6-14.4 32-32 32H448v192.192H224.192c-17.6 0-32 14.4-32 32s14.4 32 32 32h512c17.6 0 32-14.4 32-32s-14.4-32-32-32H512v-128h0.192V768H896c35.2 0 64-28.8 64-64V191.872c0-35.264-28.8-64-64-64z" /></svg>