<?xml version="1.0" standalone="no"?><!DOCTYPE svg PUBLIC "-//W3C//DTD SVG 1.1//EN" "http://www.w3.org/Graphics/SVG/1.1/DTD/svg11.dtd"><svg class="icon" width="200px" height="200.00px" viewBox="0 0 1024 1024" version="1.1" xmlns="http://www.w3.org/2000/svg"><path d="M470.330003 930.269437A465.230539 465.230539 0 0 1 289.269238 36.596648a465.566258 465.566258 0 0 1 499.917879 89.886019 43.340222 43.340222 0 1 1-59.422239 63.104317 376.990626 376.990626 0 0 0-259.456534-102.881588C261.631995 86.662078 91.899035 256.449186 91.899035 465.147194s169.73296 378.485116 378.430968 378.485117S848.80429 673.845202 848.80429 465.147194a378.127738 378.127738 0 0 0-19.00602-118.822819 43.33914 43.33914 0 0 1 82.30527-27.182398 464.992287 464.992287 0 0 1-441.773537 611.12746zM621.46847 567.79053l-171.454873-145.766965-90.15676 112.704072H207.776191a43.318563 43.318563 0 0 1 0-86.637127h110.462337l119.884123-149.83891 178.624096 151.831564 19.493353-19.493353h140.438782a43.318563 43.318563 0 0 1 0 86.637126h-104.592671zM975.446109 1023.999978a43.177778 43.177778 0 0 1-30.626224-12.692339L746.929859 813.428443a43.319646 43.319646 0 1 1 61.263278-61.263278L1006.083163 950.055191a43.318563 43.318563 0 0 1-30.637054 73.944787z" /></svg>