<?xml version="1.0" standalone="no"?><!DOCTYPE svg PUBLIC "-//W3C//DTD SVG 1.1//EN" "http://www.w3.org/Graphics/SVG/1.1/DTD/svg11.dtd"><svg class="icon" width="200px" height="200.00px" viewBox="0 0 1024 1024" version="1.1" xmlns="http://www.w3.org/2000/svg"><path d="M1007.232 578.752c-319.232 66.752-279.872 296-279.872 296h120.64l-201.28 120.256-161.024-200.896 120.768 40.384s-65.856-281.664 364.48-270.912c9.792 0.256 46.208 13.184 36.288 15.168zM179.328 670.72h218.816c18.688 0 33.792 12.992 33.792 31.232 0 18.112-15.168 30.848-33.792 30.848H179.328c-18.688 0-33.792-12.736-33.792-30.848 0-18.176 15.104-31.232 33.792-31.232z m-33.792-352.64c0-18.176 15.104-30.912 33.792-30.912h375.36c18.688 0 33.664 12.8 33.664 30.912a33.28 33.28 0 0 1-33.664 32.96H179.328a33.408 33.408 0 0 1-33.792-32.96z m344.256 224.896H179.328c-18.688 0-33.792-12.736-33.792-30.912s15.104-32.96 33.792-32.96h310.464c18.688 0 33.792 14.784 33.792 32.96 0.064 18.176-15.104 30.912-33.792 30.912z m228.928-60.928V139.072c0-25.6-21.376-46.4-47.488-46.4H120.64c-26.24 0-43.584 20.736-43.584 46.4v740.032c0 25.728 17.344 46.4 43.584 46.4h326.784c7.616 10.88 27.072 40.512 42.688 62.656H62.592a47.104 47.104 0 0 1-47.552-46.528V75.2c0-25.536 21.184-46.272 47.552-46.272h671.168c26.368 0 47.744 20.736 47.744 46.272v404.032a269.184 269.184 0 0 0-62.784 2.816z" /></svg>