<?xml version="1.0" standalone="no"?><!DOCTYPE svg PUBLIC "-//W3C//DTD SVG 1.1//EN" "http://www.w3.org/Graphics/SVG/1.1/DTD/svg11.dtd"><svg class="icon" width="200px" height="140.27px" viewBox="0 0 1460 1024" version="1.1" xmlns="http://www.w3.org/2000/svg"><path d="M1131.443647 242.600551L1036.158676 74.598102c-23.507805-41.373737-81.963881-73.814509-132.89746-73.814508H316.663114c-50.933578 0-109.546373 32.284053-133.210897 73.344352l-95.284971 164.554637c-20.53015 35.575145-36.672176 94.971534-36.672176 135.24824v552.903582c0 52.814203 46.858892 95.755127 104.688093 95.755127h906.93113c57.672482 0 104.688093-42.940924 104.688093-95.755127V377.848791c-0.156719-40.276706-15.985308-99.673095-36.358739-135.24824z m-992.029385 26.955617L236.893295 96.068564C249.117353 74.284665 284.065624 54.538108 310.080929 54.538108h599.762473c26.015305 0 60.650138 19.903275 72.717478 41.687175l97.479032 177.248852c4.544842 8.46281 8.932966 19.2764 12.850934 30.873585H125.15286c4.388124-13.164371 9.089685-25.545148 14.261402-34.791552z m969.461892 666.52464c0 18.022651-15.985308 32.59749-35.731865 32.59749H145.839729c-19.746556 0-35.731864-14.731558-35.731864-32.59749V370.796449c0-2.664218 0.626875-6.112029 0.783593-8.932966h996.730946c0.470156 4.388124 1.25375 9.246403 1.25375 13.007653v561.209672z m-10.97031-9.246403M902.79106 540.99296L727.109395 712.756657l-70.993572-64.724824c-13.634527-12.537496-35.731864-12.537496-49.366391 0s-13.634527 32.754209 0 45.134987l95.598408 87.292317c6.738904 6.268748 15.67187 9.403122 24.604836 9.403122 4.85828 0 9.559841-1.097031 14.104684-2.977655 5.171717-1.567187 9.873278-4.074686 13.791245-7.992654l198.719315-194.331191c13.164371-12.850934 12.380777-33.067646-1.567187-45.134986-13.947964-11.910621-35.888583-11.283747-49.209673 1.567187z m-397.28191 46.545454H296.132964c-19.2764 0-34.948271 14.261402-34.948271 31.970616 0 17.709213 15.67187 31.970615 34.948271 31.970615h209.376186c19.2764 0 34.948271-14.261402 34.948271-31.970615 0-17.709213-15.67187-31.970615-34.948271-31.970616z m-105.785124 136.345271H295.035933c-19.2764 0-34.948271 14.418121-34.94827 31.970616 0 17.709213 15.67187 31.970615 34.94827 31.970615h104.688093c19.2764 0 34.948271-14.261402 34.948271-31.970615-0.156719-17.709213-15.67187-31.970615-34.948271-31.970616z m0 0" /></svg>