<?xml version="1.0" standalone="no"?><!DOCTYPE svg PUBLIC "-//W3C//DTD SVG 1.1//EN" "http://www.w3.org/Graphics/SVG/1.1/DTD/svg11.dtd"><svg class="icon" width="200px" height="185.68px" viewBox="0 0 1103 1024" version="1.1" xmlns="http://www.w3.org/2000/svg"><path d="M1082.688049 312.090441L570.727424 5.945705a36.501115 36.501115 0 0 0-40.005537 0L18.761262 312.090441c-20.002769 11.930785-24.019073 35.792356-12.009536 55.676997 12.009536 19.884642 36.028609 23.86157 55.992002 11.930785l44.021841-27.838498V983.994463c0 23.86157 15.986465 39.769284 40.005537 39.769284s39.966162-15.907714 39.966162-39.769284V304.136584l363.987388-218.652311 363.948012 218.652311V983.994463c0 23.86157 16.02584 39.769284 40.005537 39.769284 24.019073 0 40.005537-15.907714 40.005537-39.769284V351.859725l47.998769 27.838498c7.993232 3.937553 12.009536 3.937553 20.002769 3.937553 12.009536 0 27.956625-7.914481 35.989233-19.845266 7.993232-15.907714 3.976928-43.706837-15.986464-51.700069z m-331.975083 396.511574H350.736345c-24.019073 0-40.005537 15.868338-40.005537 39.729908 0 23.86157 16.02584 39.769284 40.005537 39.769284h399.976621c24.019073 0 40.005537-15.907714 40.005537-39.769284s-20.002769-39.769284-40.005537-39.769284z m0 164.077828H350.736345c-24.019073 0-40.005537 15.907714-40.005537 39.769284s16.02584 39.769284 40.005537 39.769284h399.976621c24.019073 0 40.005537-15.907714 40.005537-39.769284s-20.002769-39.769284-40.005537-39.769284z m0-492.351611H350.736345c-24.019073 0-40.005537 15.907714-40.005537 39.769284s16.02584 39.769284 40.005537 39.769284h399.976621c24.019073 0 40.005537-15.907714 40.005537-39.769284s-20.002769-39.769284-40.005537-39.769284z m0 164.117204H350.736345c-24.019073 0-40.005537 15.907714-40.005537 39.769284s16.02584 39.769284 40.005537 39.769284h399.976621c24.019073 0 40.005537-15.907714 40.005537-39.769284s-20.002769-39.769284-40.005537-39.769284z" /></svg>