<?xml version="1.0" standalone="no"?><!DOCTYPE svg PUBLIC "-//W3C//DTD SVG 1.1//EN" "http://www.w3.org/Graphics/SVG/1.1/DTD/svg11.dtd"><svg class="icon" width="200px" height="200.00px" viewBox="0 0 1024 1024" version="1.1" xmlns="http://www.w3.org/2000/svg"><path d="M88.832 258.0992H51.2v507.8016H295.7312l12.4928-31.3344H88.832zM972.8 264.3456h-319.744l12.544 31.3856h263.3216l-169.2672 275.8656s-25.088-18.7904-43.8784-18.7904l-131.6352-288.4096h-43.8784L320.8192 765.952h31.3344s56.4224-125.3888 68.9664-150.4768c25.088-18.7904 125.3888-43.8784 163.0208-43.8784 43.8784 0 119.1424 0 156.7232 31.3344l-81.5104 131.6352v31.3344h282.112l12.544-31.3344h-257.024L972.8 301.9776v-37.632z m-413.7984 269.6192c-25.088 0-94.0544 18.7904-112.8448 31.3344l106.5984-263.3216h18.7904l100.3008 244.5312c-12.4928-12.544-94.0032-12.544-112.8448-12.544z" /></svg>