<?xml version="1.0" standalone="no"?><!DOCTYPE svg PUBLIC "-//W3C//DTD SVG 1.1//EN" "http://www.w3.org/Graphics/SVG/1.1/DTD/svg11.dtd"><svg class="icon" width="200px" height="200.00px" viewBox="0 0 1024 1024" version="1.1" xmlns="http://www.w3.org/2000/svg"><path d="M218.624 656.384V329.216h-42.4448v365.568h173.6192c-7.9872-16.7936 9.6256-38.4 9.6256-38.4H218.624zM603.8016 328.8064l15.9744 38.4h178.432l-115.2 183.1936c-5.5808-5.5808-25.6512-11.2128-25.6512-11.2128l-88.7808-210.3808h-38.4l-165.5808 365.568 37.5808 0.8192 45.5168-102.7072c112.896-67.6864 219.3408-15.7184 219.3408-15.7184l-63.232 98.4064 7.9872 19.2h206.4384c-6.4-11.9808 11.2128-38.4 11.2128-38.4h-167.9872L847.872 358.4v-29.5936h-244.0704zM465.408 544.8192l84.0192-177.5616 67.9936 160.768c0-0.0512-96-15.2064-152.0128 16.7936zM512 0.0512c-282.6752 0-512 229.2224-512 512s229.3248 512 512 512c282.8288 0 512.0512-229.2224 512.0512-512S794.8288 0.0512 512 0.0512z m0 985.5488A473.6 473.6 0 1 1 512.1024 38.2976 473.6 473.6 0 0 1 512 985.6z" /></svg>