<?xml version="1.0" standalone="no"?><!DOCTYPE svg PUBLIC "-//W3C//DTD SVG 1.1//EN" "http://www.w3.org/Graphics/SVG/1.1/DTD/svg11.dtd"><svg class="icon" width="200px" height="184.01px" viewBox="0 0 1113 1024" version="1.1" xmlns="http://www.w3.org/2000/svg"><path d="M705.749503 875.799588a22.261773 22.261773 0 0 1-15.741439-6.513208l-280.937301-280.86604-280.851788 280.86604a22.268899 22.268899 0 1 1-31.497131-31.49713l296.60748-296.550471a22.268899 22.268899 0 0 1 31.49713 0l296.607479 296.550471a22.268899 22.268899 0 0 1-15.68443 38.010338z m296.543345-169.051227a22.261773 22.261773 0 0 1-22.268899-22.268899v-105.287353h-105.287353c-12.306684 0-22.268899-9.962215-22.268899-22.268899s9.962215-22.268899 22.268899-22.268899h127.556252a22.261773 22.261773 0 0 1 22.268898 22.268899v127.556252a22.261773 22.261773 0 0 1-22.268898 22.268899zM705.749503 875.799588a22.254647 22.254647 0 0 1-15.741439-38.010338l296.536218-296.550471a22.268899 22.268899 0 1 1 31.497131 31.49713L721.44106 869.28638a22.247521 22.247521 0 0 1-15.691557 6.513208zM1074.679239 1024H38.979481a38.965228 38.965228 0 0 1-38.972355-38.972354V394.99803a38.965228 38.965228 0 0 1 38.972355-38.972354h1035.699758a38.965228 38.965228 0 0 1 38.972355 38.972354v590.029616a38.97948 38.97948 0 0 1-38.972355 38.972354z m-1030.134315-44.537798h1024.561746V400.563473H44.544924v578.898729zM913.203001 400.563473a22.290277 22.290277 0 0 1-15.74144-6.513207L556.82936 53.752989 216.197158 394.050266a22.276025 22.276025 0 0 1-31.482878-31.511383l356.373641-356.010212a22.276025 22.276025 0 0 1 31.482878 0l356.373641 356.010212a22.254647 22.254647 0 0 1-15.741439 38.02459z" /></svg>