<?xml version="1.0" standalone="no"?><!DOCTYPE svg PUBLIC "-//W3C//DTD SVG 1.1//EN" "http://www.w3.org/Graphics/SVG/1.1/DTD/svg11.dtd"><svg class="icon" width="200px" height="200.00px" viewBox="0 0 1024 1024" version="1.1" xmlns="http://www.w3.org/2000/svg"><path d="M830.272 76.8c50.304 0 91.328 41.344 91.328 92.16v726.848h-45.696V168.96c0-25.472-20.48-46.08-45.632-46.08H193.728c-24.64 0-44.8 19.84-45.568 44.672a62.592 62.592 0 0 1 19.392-3.072h596.032c35.712 0 64.704 29.248 64.704 65.28v652.16c0 36.032-28.992 65.28-64.704 65.28H167.552c-35.712 0-64.64-29.184-64.64-65.216v-32.256H102.4V168.96c0-50.816 40.96-92.16 91.328-92.16zM605.12 354.496c-10.752 66.752-31.36 120.064-61.824 159.488l19.712 24.192a390.4 390.4 0 0 0 19.264-25.984c12.544 48.384 28.672 92.736 49.28 133.504a257.984 257.984 0 0 1-80.192 93.632l17.92 27.328a296.96 296.96 0 0 0 79.296-89.152c18.816 32.704 40.32 62.72 65.408 90.048l21.056-24.64a485.632 485.632 0 0 1-69.888-98.112c23.296-51.968 36.288-114.688 38.08-188.16h30.464v-30.912H620.8c6.272-20.608 11.648-42.56 16.128-65.856l-31.808-5.376z m-206.528-0.896c-16.576 48.384-41.216 86.912-73.92 115.136l24.192 21.504c6.272-5.824 12.544-12.096 18.816-18.368a1790.272 1790.272 0 0 1-5.824 98.56h-33.6v28.224h30.464a1555.072 1555.072 0 0 1-15.68 103.488h155.904a66.752 66.752 0 0 1-2.688 13.888c-3.584 9.856-9.856 16.576-18.368 19.264-8.064 2.24-17.92 3.584-28.672 3.584-6.272 0-13.44-0.896-21.504-1.792l9.856 30.016c6.272 0 11.648-0.448 16.128-0.448 21.504 0 37.632-3.136 48.832-9.408a50.944 50.944 0 0 0 22.848-30.912c0.896-3.584 2.24-11.648 3.584-24.192h32.704v-28.672H531.2c0.896-19.264 2.24-44.352 3.584-74.816h30.464v-28.224H535.68l3.136-102.144H370.816c9.856-11.2 19.264-24.192 28.224-38.528h151.424v-30.464H415.616c4.48-9.856 9.408-21.056 13.888-33.152l-30.912-12.544z m106.624 245.056c-1.344 30.464-2.688 55.552-4.032 74.816H378.88c4.032-22.4 7.616-47.488 10.752-74.816h115.584z m-77.952 5.824l-17.472 17.024c18.816 16.576 33.6 32.256 44.8 47.04l17.472-17.024a291.392 291.392 0 0 0-44.8-47.04z m246.4-147.84c-1.792 57.792-10.304 108.864-26.432 152.768a677.12 677.12 0 0 1-45.248-133.504c2.688-6.272 5.376-12.544 8.064-19.264h63.616z m-165.312 40.32c-0.896 26.432-1.344 51.072-2.24 73.472H392.32c1.792-23.296 3.136-47.488 4.48-73.472h111.552z m-74.368 3.584l-17.92 17.024c19.264 17.024 34.496 32.704 45.696 47.488l17.472-17.472a338.368 338.368 0 0 0-45.248-47.04z" /></svg>