<?xml version="1.0" standalone="no"?><!DOCTYPE svg PUBLIC "-//W3C//DTD SVG 1.1//EN" "http://www.w3.org/Graphics/SVG/1.1/DTD/svg11.dtd"><svg class="icon" width="200px" height="176.25px" viewBox="0 0 1162 1024" version="1.1" xmlns="http://www.w3.org/2000/svg"><path d="M581.189189 999.091892h-8.302703c-44.281081-2.767568-85.794595-22.140541-116.237837-55.351351L66.421622 514.767568c-55.351351-60.886486-58.118919-152.216216-5.535136-215.870271l190.962163-238.010811C282.291892 22.140541 329.340541 0 381.924324 0h387.45946c49.816216 0 96.864865 22.140541 127.308108 58.118919l202.032432 240.778378c52.583784 63.654054 52.583784 157.751351-5.535135 218.637838l-387.459459 426.205406-11.070271 11.07027c-33.210811 27.675676-71.956757 44.281081-113.47027 44.281081zM381.924324 83.027027c-24.908108 0-49.816216 11.07027-63.654054 30.443243l-190.962162 238.010811c-24.908108 33.210811-24.908108 77.491892 2.767568 107.935135l390.227027 428.972973c13.837838 16.605405 35.978378 24.908108 58.118919 27.675676 22.140541 0 44.281081-5.535135 60.886486-22.140541l5.535135-5.535135 387.45946-426.205405c27.675676-30.443243 27.675676-77.491892 2.767567-107.935135l-202.032432-240.778379c-16.605405-19.372973-41.513514-30.443243-63.654054-30.443243h-387.45946zM567.351351 705.72973h-5.535135c-33.210811-2.767568-63.654054-16.605405-85.794594-41.513514l-168.821622-185.427027c-16.605405-16.605405-13.837838-44.281081 2.767568-58.118919 16.605405-16.605405 44.281081-13.837838 58.118918 2.767568l168.821622 185.427027c8.302703 8.302703 16.605405 13.837838 27.675676 13.837838s22.140541-2.767568 30.443243-11.070271l2.767568-2.767567 174.356756-179.891892c16.605405-16.605405 41.513514-16.605405 58.118919 0 16.605405 16.605405 16.605405 41.513514 0 58.118919l-174.356756 179.891892-5.535136 5.535135c-22.140541 22.140541-52.583784 33.210811-83.027027 33.210811z" /></svg>