<?xml version="1.0" standalone="no"?><!DOCTYPE svg PUBLIC "-//W3C//DTD SVG 1.1//EN" "http://www.w3.org/Graphics/SVG/1.1/DTD/svg11.dtd"><svg t="1606361413763" class="icon" viewBox="0 0 1024 1024" version="1.1" xmlns="http://www.w3.org/2000/svg" p-id="3871" xmlns:xlink="http://www.w3.org/1999/xlink" width="200" height="200"><defs><style type="text/css"></style></defs><path d="M128 96a32 32 0 0 1 32 32v768a32 32 0 1 1-64 0V128a32 32 0 0 1 32-32z m256 0a32 32 0 0 1 32 32v768a32 32 0 1 1-64 0V128a32 32 0 0 1 32-32z m256 544a32 32 0 0 1 32 32v224a32 32 0 1 1-64 0V672a32 32 0 0 1 32-32z m145.76-237.888l137.152 99.536c6.784 4.928 6.784 15.776 0 20.704l-137.136 99.536c-7.6 5.52-17.776-0.416-17.776-10.352V544H544a32 32 0 1 1 0-64h224v-67.536c0-9.936 10.176-15.872 17.76-10.352zM640 96a32 32 0 0 1 32 32v224a32 32 0 1 1-64 0V128a32 32 0 0 1 32-32z" p-id="3872"></path></svg>