<?xml version="1.0" standalone="no"?><!DOCTYPE svg PUBLIC "-//W3C//DTD SVG 1.1//EN" "http://www.w3.org/Graphics/SVG/1.1/DTD/svg11.dtd"><svg class="icon" width="200px" height="200.00px" viewBox="0 0 1024 1024" version="1.1" xmlns="http://www.w3.org/2000/svg"><path d="M944.320187 56.800466L518.764329 0h-7.062755L86.145716 56.800466l-28.449971 398.896445v1.790557c0 116.883622 43.769186 226.00816 130.213328 324.289878 69.732271 79.381387 168.710317 154.08743 302.50476 228.39557l24.868856 13.827084 24.868856-13.827084C673.945988 935.964251 772.824558 861.258209 842.656305 781.876821c86.444142-98.281718 130.213328-207.406256 130.213328-324.289877v-1.790558L944.320187 56.800466zM284.400233 672.851758h-69.53332V291.761414h69.53332v381.090344z m192.683894 0h-70.130173V291.761414h70.130173v381.090344z m4.277443-406.257625h-88.632602v429.8333h-93.506897V266.594133H210.58947v-67.245386h88.632601v-52.423548h93.506897v52.423548h88.632602V266.594133z m332.446862 330.158927v96.789586c-60.282106-22.879347-112.606178-56.104138-156.972217-99.674373-44.366038 43.570235-97.286963 76.795026-156.972217 99.674373v-96.789586c35.711677-26.559938 66.449582-52.423548 92.910045-81.27142-45.559744-70.130173-76.297649-156.574315-90.522634-260.725083h103.454439c9.848067 64.261123 27.057315 117.480474 51.130367 163.239169 22.779872-50.235088 38.198562-110.019817 46.753449-187.610647h-209.893142v-64.957451h326.179911c-6.764329 143.244609-40.585972 259.232951-97.286963 347.865552 26.559938 29.544201 57.297843 56.899942 91.218962 83.45988z" /></svg>