<?xml version="1.0" standalone="no"?><!DOCTYPE svg PUBLIC "-//W3C//DTD SVG 1.1//EN" "http://www.w3.org/Graphics/SVG/1.1/DTD/svg11.dtd"><svg class="icon" width="200px" height="200.00px" viewBox="0 0 1024 1024" version="1.1" xmlns="http://www.w3.org/2000/svg"><path d="M531.0976 94.8736l353.1264 176.5888c7.168 3.584 11.776 10.9568 11.776 19.0464v278.3744c0 135.4752-122.368 256.3072-367.0016 362.496a42.6496 42.6496 0 0 1-33.9968 0C250.368 825.1904 128 704.3584 128 568.8832V290.5088c0-8.0896 4.608-15.4624 11.776-19.0464l353.1264-176.5888a42.6496 42.6496 0 0 1 38.1952 0z m202.2912 272.384a42.6496 42.6496 0 0 0-58.7264 0l-0.8192 0.8192-183.1936 183.1424-97.792-97.792-0.8192-0.8192a42.6496 42.6496 0 0 0-60.3648 60.2624l0.8192 0.8704 128 128 0.768 0.7168a42.6496 42.6496 0 0 0 58.7264 0.1024l0.8704-0.8192 213.2992-213.3504 0.768-0.768a42.6496 42.6496 0 0 0 0.0512-58.7264l-0.8192-0.8192-0.768-0.768z" /></svg>