<?xml version="1.0" standalone="no"?><!DOCTYPE svg PUBLIC "-//W3C//DTD SVG 1.1//EN" "http://www.w3.org/Graphics/SVG/1.1/DTD/svg11.dtd"><svg class="icon" width="200px" height="200.00px" viewBox="0 0 1024 1024" version="1.1" xmlns="http://www.w3.org/2000/svg"><path d="M923.484663 697.325153h-69.104295V552.834356c0-37.693252-31.411043-69.104294-69.104294-69.104295H540.269939V351.803681h69.104294c37.693252 0 69.104294-31.411043 69.104295-69.104294V69.104294C684.760736 31.411043 653.349693 0 609.374233 0H402.06135c-37.693252 0-69.104294 31.411043-69.104295 69.104294v213.595093c0 37.693252 31.411043 69.104294 69.104295 69.104294h69.104294v131.92638H226.159509c-37.693252 0-75.386503 31.411043-75.386503 69.104295V691.042945H87.95092c-37.693252 0-62.822086 25.128834-62.822086 62.822086V961.177914c0 37.693252 25.128834 62.822086 62.822086 62.822086h201.030675c37.693252 0 62.822086-25.128834 62.822086-56.539877V760.147239c0-37.693252-25.128834-62.822086-56.539877-62.822086H226.159509V552.834356h565.398773V691.042945h-56.539877c-37.693252 0-62.822086 25.128834-69.104295 56.539877V954.895706c0 37.693252 25.128834 62.822086 62.822086 62.822085H936.04908c37.693252 0 62.822086-25.128834 62.822086-56.539877V753.865031c0-37.693252-25.128834-62.822086-62.822086-62.822086-6.282209 6.282209-6.282209 6.282209-12.564417 6.282208z" /></svg>