<?xml version="1.0" standalone="no"?><!DOCTYPE svg PUBLIC "-//W3C//DTD SVG 1.1//EN" "http://www.w3.org/Graphics/SVG/1.1/DTD/svg11.dtd"><svg class="icon" width="200px" height="199.61px" viewBox="0 0 1026 1024" version="1.1" xmlns="http://www.w3.org/2000/svg"><path d="M335.782325 959.471028H184.351781c-65.615641 0-119.022235-48.4207-119.022235-107.899857V354.420026c0-18.089846-12.688461-32.759879-30.746346-32.759879-18.121806 0-32.79184 14.670034-32.79184 32.759879v496.160359C1.79136 946.175311 84.569982 1024 186.333354 1024h149.448971c18.121806 0 32.79184-13.679247 32.791841-31.769093 0-18.089846-14.670034-32.759879-32.791841-32.759879zM839.99682 1.252546H597.541752c-18.121806 0-32.79184 14.670034-32.79184 32.79184 0 18.089846 14.670034 30.746345 32.79184 30.746346h243.445855c65.615641 0 119.022235 48.4207 119.022235 107.899856v677.889797c0 59.479157-54.365419 109.88143-120.013022 109.881429-18.089846 0-32.759879 12.688461-32.759879 30.746346 0 18.121806 14.670034 32.79184 32.759879 32.79184C941.760192 1024 1024.538814 946.175311 1024.538814 850.580385V174.672161C1024.538814 79.077235 941.760192 1.252546 839.99682 1.252546zM149.770132 284.393786a81.436266 81.436266 0 0 0 57.72131 23.81084c20.87044 0 41.804802-7.958254 57.721309-23.81084l207.777538-227.177778A32.759879 32.759879 0 1 0 426.710966 10.808843L218.933429 238.018582a16.236116 16.236116 0 0 1-22.883974 0L57.690901 100.011597A32.759879 32.759879 0 1 0 11.411578 146.418763L149.770132 284.393786z m661.749564-60.629747h-301.74246a32.759879 32.759879 0 1 0 0 65.519759h301.74246a32.759879 32.759879 0 1 0 0-65.519759z m0 256.102355h-301.74246c-18.121806 0-32.79184 14.670034-32.79184 32.759879s14.670034 31.769093 32.79184 31.769093h301.74246c18.121806 0 32.79184-13.679247 32.79184-31.769093 0-18.089846-14.670034-32.759879-32.79184-32.759879z m-614.127885 0c-18.121806 0-32.79184 14.670034-32.791841 32.759879s14.670034 31.769093 32.791841 31.769093h161.594097c18.089846 0 32.759879-13.679247 32.75988-31.769093 0-18.089846-14.670034-32.759879-32.75988-32.759879H197.391811z m686.615111 366.239471a32.695958 32.695958 0 0 0 0-42.923432c-5.177659-5.97668-128.770297-146.476612-286.46517-146.476612s-281.287511 140.499931-286.497131 146.476612a32.759879 32.759879 0 0 0 0 42.923432c5.20962 6.008641 128.802257 146.476612 286.497131 146.476612s281.287511-140.467971 286.46517-146.476612z m-286.46517 80.956853c-65.487798 0-125.765976-32.951645-164.790184-60.597787a482.257385 482.257385 0 0 1-51.04149-41.804802c37.61793-35.476552 121.163612-102.370628 215.799713-102.370628 65.487798 0 125.734015 32.951645 164.790184 60.597787 21.158088 14.989642 38.608716 30.107128 51.04149 41.804802-37.61793 35.444591-121.163612 102.370628-215.799713 102.370628z m0-142.865035a40.462446 40.462446 0 1 0 0 80.924892 40.462446 40.462446 0 0 0 0-80.924892z" /></svg>