<?xml version="1.0" standalone="no"?><!DOCTYPE svg PUBLIC "-//W3C//DTD SVG 1.1//EN" "http://www.w3.org/Graphics/SVG/1.1/DTD/svg11.dtd"><svg class="icon" width="200px" height="200.00px" viewBox="0 0 1024 1024" version="1.1" xmlns="http://www.w3.org/2000/svg"><path d="M33.032258 512C33.032258 247.741935 247.741935 33.032258 512 33.032258s478.967742 214.709677 478.967742 478.967742-214.709677 478.967742-478.967742 478.967742S33.032258 776.258065 33.032258 512z m612.748387 46.245161c1.651613 26.425806 13.212903 51.2 33.032258 67.716129 23.122581 16.516129 49.548387 24.774194 77.625807 23.122581 19.819355 0 39.63871-3.303226 57.806451-9.909677 14.864516-6.606452 28.077419-16.516129 36.335484-29.729033 8.258065-13.212903 13.212903-28.077419 13.212903-42.941935 0-14.864516-3.303226-29.729032-9.909677-42.941936-6.606452-11.56129-18.167742-21.470968-29.729032-26.425806-18.167742-8.258065-37.987097-14.864516-57.806452-19.819355-18.167742-3.303226-34.683871-8.258065-49.548387-18.167742-4.954839-3.303226-8.258065-9.909677-8.258065-16.516129s3.303226-13.212903 8.258065-16.516129c11.56129-6.606452 23.122581-9.909677 36.335484-9.909677 11.56129-1.651613 24.774194 1.651613 34.683871 8.258064 8.258065 8.258065 13.212903 18.167742 14.864516 29.729032l54.503226-1.651613c0-23.122581-9.909677-44.593548-26.425807-59.458064-21.470968-16.516129-49.548387-24.774194-75.974193-21.470968-18.167742 0-36.335484 3.303226-52.851613 9.909678-13.212903 4.954839-24.774194 14.864516-33.032258 26.425806-8.258065 11.56129-11.56129 24.774194-11.561291 37.987097 0 21.470968 8.258065 41.290323 24.774194 54.503226 18.167742 13.212903 39.63871 23.122581 61.109677 26.425806 23.122581 4.954839 36.335484 9.909677 42.941936 11.56129 6.606452 1.651613 14.864516 6.606452 19.819355 11.561291 3.303226 4.954839 4.954839 9.909677 4.954838 16.516129 0 9.909677-4.954839 19.819355-13.212903 26.425806-11.56129 8.258065-24.774194 11.56129-39.638709 11.561291-14.864516 0-28.077419-3.303226-39.63871-13.212904-11.56129-9.909677-18.167742-24.774194-19.819355-39.638709l-52.851613 6.606451z m-234.529032-135.432258h79.277419v222.967742H545.032258V422.812903h79.277419v-44.593548H411.251613v44.593548z m-184.980645 110.658065c9.909677 0 18.167742 0 26.425806 3.303226 6.606452 1.651613 11.56129 6.606452 16.516129 11.56129 9.909677 13.212903 19.819355 26.425806 28.07742 39.63871l39.638709 57.806451h64.412903l-33.032258-52.851613c-8.258065-14.864516-19.819355-29.729032-31.380645-42.941935-8.258065-8.258065-18.167742-16.516129-29.729032-23.122581 19.819355-1.651613 37.987097-9.909677 52.851613-24.774193 11.56129-13.212903 18.167742-31.380645 18.167742-49.548388 0-14.864516-3.303226-29.729032-11.56129-42.941935-6.606452-11.56129-18.167742-21.470968-31.380646-26.425806-19.819355-4.954839-41.290323-8.258065-62.76129-6.606452H160.206452V644.129032H214.709677v-112.309677l11.561291 1.651613z m-11.561291-42.941936v-67.716129h42.941936c21.470968 0 34.683871 0 39.63871 1.651613 8.258065 1.651613 14.864516 4.954839 19.819354 9.909678 4.954839 6.606452 8.258065 13.212903 6.606452 21.470967 0 6.606452-1.651613 14.864516-4.954839 19.819355-3.303226 4.954839-8.258065 9.909677-14.864516 11.56129-16.516129 3.303226-33.032258 3.303226-47.896774 3.303226H214.709677z" /></svg>