<?xml version="1.0" standalone="no"?><!DOCTYPE svg PUBLIC "-//W3C//DTD SVG 1.1//EN" "http://www.w3.org/Graphics/SVG/1.1/DTD/svg11.dtd"><svg class="icon" width="200px" height="200.00px" viewBox="0 0 1024 1024" version="1.1" xmlns="http://www.w3.org/2000/svg"><path d="M923.748252 942.673327H101.274725c-11.252747 0-19.948052 11.764236-19.948052 27.108891v27.108891c0 14.833167 8.695305 27.108891 19.948052 27.108891H921.190809c11.252747 0 19.948052-12.275724 19.948052-27.108891v-27.108891c0-15.344655-8.695305-27.108891-17.390609-27.108891m18.925075-90.533467v-61.89011c0-34.781219-7.672328-42.453546-43.476524-42.453546h-128.383616c-10.22977-1.022977-20.45954-7.672328-29.666334-14.833167-0.511489-0.511489-0.511489-0.511489-1.022977-0.511489-3.58042-2.557443-8.695305-7.672328-13.81019-13.298701-2.557443-2.557443-5.114885-5.114885-7.160839-8.183816-4.091908-4.603397-8.183816-9.718282-11.764236-14.321678-76.723277-91.044955-27.108891-154.46953 27.108891-240.911089 10.22977-12.787213 20.45954-24.551449 28.131869-39.896104 23.016983-39.896104 35.804196-84.907093 35.804195-134.521479 0-153.958042-128.383616-281.318681-289.502497-281.318681C349.346653 1.022977 218.917083 125.826174 218.917083 282.341658c0 64.959041 23.016983 124.291708 61.378621 171.86014 61.378621 94.625375 161.63037 171.86014 0 293.594406H126.337662c-28.131868 0-43.476523 14.833167-43.476523 42.453546V855.208791c0 24.551449 17.902098 19.948052 46.033966 19.948052h789.738262c26.597403-3.068931 24.03996 4.091908 24.03996-23.016983" /></svg>