<?xml version="1.0" standalone="no"?><!DOCTYPE svg PUBLIC "-//W3C//DTD SVG 1.1//EN" "http://www.w3.org/Graphics/SVG/1.1/DTD/svg11.dtd"><svg class="icon" width="200px" height="200.00px" viewBox="0 0 1024 1024" version="1.1" xmlns="http://www.w3.org/2000/svg"><path d="M821.248 787.456H234.496V374.272c0-18.432-14.336-32.768-31.744-32.768s-31.744 14.848-31.744 32.768v445.952c0 18.432 14.336 32.768 31.744 32.768h618.496c17.408 0 31.744-14.848 31.744-32.768 0.512-17.92-13.824-32.768-31.744-32.768zM358.4 626.176l95.232-103.936 131.584 97.792c1.536 2.048 2.048 4.608 4.096 6.144 14.336 14.848 37.376 14.848 51.712 0l157.696-209.92c2.048-1.536 4.096-3.072 6.144-5.12 14.848-15.36 14.848-39.936 0-55.296s-38.4-15.36-52.736 0c-1.024 1.024-1.536 2.56-2.56 4.096l-133.632 184.32-135.168-101.888c-0.512-0.512-0.512-1.024-1.024-1.536-14.848-15.36-38.4-15.36-52.736 0-1.024 1.024-1.536 2.56-2.56 4.096l-117.76 127.488c-14.336 14.848-14.336 39.424 0 54.272 13.824 14.848 37.376 14.848 51.712-0.512z m550.912-552.96H795.648V58.88c0-32.256-26.624-58.88-58.88-58.88H287.232c-32.256 0-58.88 26.624-58.88 58.88v14.336H114.688C51.2 73.216 0 124.928 0 187.904v721.408C0 972.8 51.2 1024 114.688 1024h794.624C972.8 1024 1024 972.288 1024 909.312V188.416c0-63.488-51.712-115.2-114.688-115.2z m-611.84-3.584h428.544v129.024H297.472V69.632z m611.84 887.296H114.688c-26.112 0-47.616-21.504-47.616-47.616V188.416c0-26.624 21.504-47.616 47.616-47.616h113.664v68.608c0 32.256 26.624 58.88 58.88 58.88h449.536c32.256 0 58.88-26.624 58.88-58.88v-69.12h113.664c26.112 0 47.616 21.504 47.616 47.616V908.8c0 27.136-21.504 48.128-47.616 48.128z" /></svg>