<?xml version="1.0" standalone="no"?><!DOCTYPE svg PUBLIC "-//W3C//DTD SVG 1.1//EN" "http://www.w3.org/Graphics/SVG/1.1/DTD/svg11.dtd"><svg class="icon" width="200px" height="200.00px" viewBox="0 0 1024 1024" version="1.1" xmlns="http://www.w3.org/2000/svg"><path d="M84.983607 0h72.781159v846.81012H84.983607zM786.888858 0h72.781159v850.810775h-72.781159zM894.75269 0h44.217038v850.810775h-44.217038zM384.711053 0h72.78116v734.6239h-72.78116zM525.097699 0h72.781159v734.6239h-72.781159zM649.873394 0h72.78116v734.6239h-72.78116zM211.633735 0h113.33326v847.061909H211.633735zM309.076279 1013.900443c-4.084586-5.959019-5.819136-11.414458-5.819135-16.380307 0-1.98634 0.363696-7.18999 0.363695-9.302224V965.193159q0-2.797661-0.363695-8.560844c-0.125895-3.832796-0.25179-6.812305-0.25179-8.798645a57.771706 57.771706 0 0 1 0.74138-9.190317 5.959019 5.959019 0 0 1 6.210808-4.588165c4.336375 0 6.448609 4.098574 6.44861 12.155839 0 2.489919-0.377684 7.567674-0.377685 8.686738v32.005246c0 1.874433-0.377684 6.700399-0.377684 8.686738 0 13.400798 10.673078 15.876728 17.247582 15.876728 6.994153 0 13.400798-2.979509 15.764822-8.924539a22.507185 22.507185 0 0 0 1.105076-7.693569c0-1.860445-0.237801-6.322715-0.237801-7.945358v-31.753456c0-0.99317-0.125895-2.72772-0.25179-5.217639s-0.25179-4.336375-0.251789-5.595322a23.584285 23.584285 0 0 1 0.74138-6.070925 6.476586 6.476586 0 0 1 6.084914-4.336376 4.895907 4.895907 0 0 1 1.860444 0.363696c3.594995 1.398831 4.196492 3.972679 4.196492 8.392984v50.120103c0 0.867275-0.125895 2.601825-0.251789 5.45544a20.8146 20.8146 0 0 1-0.867275 6.084913l-1.636632 4.839954c-1.496749 3.972679-4.098574 6.574504-7.567674 9.176329a29.851046 29.851046 0 0 1-18.184799 5.595323c-11.414458-0.013988-20.408939-4.21048-24.325665-10.057592zM397.53833 936.363259c2.112234-1.398831 3.72089-1.496749 7.567674-1.496749 1.398831 0 2.797661 0 4.46227 0.125895s5.091744 0.125895 10.043604 0.125895c10.547183 0 17.373477 0.867275 23.947981 5.707229s9.679908 11.414458 9.679908 19.975302c0 9.428119-4.714059 18.114857-12.785312 22.213431q-7.609639 3.706901-20.464892 3.720889c-1.482761 0-3.594995 0-6.44861-0.125895s-4.839954-0.125895-6.210808-0.125894v21.094366c0 1.482761 0.25179 5.20365 0.25179 6.560516a21.681875 21.681875 0 0 1-0.363696 4.098574 6.126878 6.126878 0 0 1-6.084914 4.965849c-4.336375 0-6.574504-3.357194-6.574504-10.043605 0-1.98634 0.363696-6.588492 0.363696-7.945358v-52.106442c0-1.398831-0.363696-5.833124-0.363696-7.819464 0-4.839954 0.867275-7.567674 2.979509-8.924539z m43.363751 24.927162c0-5.20365-1.98634-8.92454-5.959019-11.288563q-4.951861-2.993498-14.086224-2.993498c-1.608655 0-3.972679 0.111906-7.064095 0.237801s-5.091744 0.25179-6.462598 0.25179v26.577783c1.398831 0 3.483088 0.125895 6.574504 0.251789s5.469428 0.237801 7.078083 0.237801c13.274903 0 19.975302-4.46227 19.975302-13.274903zM515.823451 933.38375a21.06639 21.06639 0 0 1 15.387138 5.833123c4.098574 3.846784 6.084913 7.693569 6.084913 11.414459a6.168843 6.168843 0 0 1-6.336703 6.196819 4.965849 4.965849 0 0 1-3.720889-1.244959c-1.860445-1.608655-3.105404-5.707229-3.594995-6.322714a9.120376 9.120376 0 0 0-7.693569-3.4691c-6.322715 0-10.910879 4.336375-13.274903 11.190645a62.28993 62.28993 0 0 0-3.21731 20.842577 80.684553 80.684553 0 0 0 2.350035 19.849407c1.608655 6.322715 4.350363 10.421288 8.197148 12.407628a14.254084 14.254084 0 0 0 6.19682 1.398831c5.091744 0 7.93137-2.797661 8.560843-5.45544 0.615485-2.797661 2.47593-5.595323 6.322715-5.595323a5.889077 5.889077 0 0 1 6.084913 6.19682c0 3.846784-1.860445 7.819463-5.595322 11.666248s-8.812633 5.707229-15.387138 5.707229c-10.798973 0-20.227091-6.994153-24.437571-17.373477-3.105404-7.67958-4.839954-17.485383-4.839954-29.263537-0.055953-34.928802 17.555325-43.979236 28.913829-43.979236zM582.128025 966.759849c1.496749 0 3.608983 0.111906 6.322715 0.237801s4.728048 0.25179 5.959018 0.25179h22.828917c1.398831 0 4.965849-0.25179 6.448609-0.25179 5.959019 0 9.302224 1.860445 9.302224 7.945359 0 5.707229-3.217311 8.560844-9.791815 8.560843-2.112234 0-6.994153-0.377684-8.392984-0.377684h-27.333151c-1.496749 0-5.833124 0.377684-7.693569 0.377684-6.336703 0-9.428119-2.797661-9.428118-8.560843 0.027977-6.448609 3.4691-8.183159 11.778154-8.18316zM705.434948 983.126168h-26.913502v26.577783c2.601825 0 6.700399-0.125895 12.155838-0.237802s9.554013-0.25179 12.281734-0.251789c4.588165 0 8.560844 0.125895 12.155838 0.489591a6.518551 6.518551 0 0 1 5.707229 6.210808c0 0.363696-0.125895 0.867275-0.251789 1.73455-1.608655 4.965849-6.322715 4.46227-10.65909 4.46227h-30.64838c-0.99317 0-3.594995 0.125895-4.714059 0.125894-4.336375 0-6.700399-0.74138-7.693569-3.231298s-0.74138-2.601825-0.74138-6.19682v-54.246654c0-1.119065-0.125895-3.105404-0.251789-5.819135s-0.25179-4.853942-0.25179-6.336703c0-12.281733 4.839954-11.288563 12.295722-11.288563h31.627561c4.46227 0 9.679908-0.377684 11.036774 4.839954a10.197476 10.197476 0 0 1 0.251789 1.608655 6.238785 6.238785 0 0 1-6.070925 5.959019c-2.615813 0.125895-6.700399 0.25179-12.043932 0.251789-2.797661 0-6.826294 0-12.155838-0.125895s-9.428119-0.125895-12.029944-0.125894V970.788482c2.224141 0 5.595323-0.125895 10.169499-0.237802s8.071253-0.25179 10.421288-0.251789a85.062893 85.062893 0 0 1 10.169499 0.489591 6.336703 6.336703 0 0 1 5.595323 6.336702c-0.629474 5.637288-4.728048 6.000984-9.442107 6.000984z" /></svg>