<?xml version="1.0" standalone="no"?><!DOCTYPE svg PUBLIC "-//W3C//DTD SVG 1.1//EN" "http://www.w3.org/Graphics/SVG/1.1/DTD/svg11.dtd"><svg class="icon" width="200px" height="200.00px" viewBox="0 0 1024 1024" version="1.1" xmlns="http://www.w3.org/2000/svg"><path d="M438.144 581.717333H259.584c-12.8 0-23.424 4.266667-32.384 13.226667-8.96 8.917333-13.226667 19.584-13.226667 32.768v179.84c0 12.8 4.266667 23.893333 13.226667 32.384 8.96 8.533333 19.626667 13.226667 32.426667 13.226667h178.517333c12.8 0 23.893333-4.266667 32.853333-13.226667 8.917333-8.96 13.610667-19.626667 13.610667-32.384v-179.84c0-12.8-4.693333-23.466667-13.653333-32.384-8.96-8.96-20.053333-13.653333-32.810667-13.653333z m-178.56-58.752h178.56c12.8 0 23.893333-4.693333 32.853333-13.653333 8.917333-8.96 13.610667-20.053333 13.610667-32.853333V297.557333c0-12.8-4.693333-23.893333-13.653333-32.384a43.477333 43.477333 0 0 0-32.810667-13.653333H259.584c-12.8 0-23.424 4.693333-32.384 13.226667-8.96 8.96-13.226667 19.626667-13.226667 32.853333v178.944c0 12.8 4.266667 23.893333 13.226667 32.810667 8.96 8.96 19.626667 13.653333 32.426667 13.653333z m508.757333 58.752h-178.56c-12.8 0-23.850667 4.266667-32.810666 13.226667-8.96 8.917333-13.653333 19.584-13.653334 32.341333v179.84c0 12.8 4.693333 23.893333 13.653334 32.384 8.96 9.386667 20.053333 13.653333 32.853333 13.653334h178.517333c12.8 0 23.466667-4.266667 32.426667-13.226667 8.917333-8.96 13.184-19.626667 13.184-32.384v-179.84c0-12.8-4.266667-23.893333-13.226667-32.384-8.533333-8.96-19.626667-13.653333-32.384-13.653333zM837.546667 354.986667l-125.44-125.44a44.245333 44.245333 0 0 0-32-13.44c-12.16 0-23.125333 4.608-31.957334 13.44l-124.586666 124.586666a44.885333 44.885333 0 0 0-13.866667 32.426667c0 12.629333 4.181333 23.125333 13.013333 32.426667l125.44 125.354666a42.538667 42.538667 0 0 0 32.426667 13.056c12.629333 0 23.125333-4.608 32.426667-13.44l124.544-124.586666a43.52 43.52 0 0 0 13.482666-32.426667c0-12.202667-4.224-22.698667-13.482666-32z" /></svg>