<?xml version="1.0" standalone="no"?><!DOCTYPE svg PUBLIC "-//W3C//DTD SVG 1.1//EN" "http://www.w3.org/Graphics/SVG/1.1/DTD/svg11.dtd"><svg class="icon" width="200px" height="200.00px" viewBox="0 0 1024 1024" version="1.1" xmlns="http://www.w3.org/2000/svg"><path d="M515.328 785.92c62.208-1.92 128.768-19.456 190.72-53.376 14.848-8.064 28.8-17.664 42.752-27.136 8.192-5.504 13.184-13.44 7.68-23.424-5.888-10.624-15.232-11.648-25.856-7.424-2.048 0.768-3.968 1.792-6.016 2.432-32 10.88-63.488 23.552-96 32.256-85.12 22.784-170.112 23.936-252.288-12.16-41.216-18.176-80.768-40.064-120.96-60.288-8.32-4.224-16.64-7.04-23.168 2.176-6.656 9.344-1.28 16.384 6.016 22.144 24.832 19.712 48.896 40.32 74.752 58.624 58.24 40.832 121.856 66.304 202.368 66.176zM782.976 650.24c-1.28 9.344-1.28 14.208-2.688 18.56-4.864 16.128-10.752 32-14.976 48.384-1.152 4.48 0.384 12.16 3.584 14.72 3.328 2.688 10.368 1.792 15.488 0.896 2.944-0.512 5.632-3.968 7.936-6.528 23.168-25.6 34.176-55.808 34.432-90.24 0.128-12.8-5.632-20.352-18.432-22.784-32-6.016-63.104-4.224-92.16 12.16-8.704 4.864-19.328 10.24-14.592 22.656 4.608 12.416 15.872 6.912 24.96 6.272 18.048-1.408 36.096-2.56 56.448-4.096zM690.816 539.52c-17.024-20.864-24.32-44.032-23.808-71.04 0.896-51.2 0.768-102.528 0-153.856-0.896-62.72-27.52-99.072-84.608-116.48-46.592-14.208-93.44-13.568-139.648 1.92-47.744 16-79.872 47.616-91.648 97.792-3.968 16.64-1.152 21.12 16 23.424 18.56 2.432 37.12 4.352 55.552 6.656 17.28 2.176 19.968 0.64 25.344-16 11.52-35.84 52.736-54.144 86.144-36.736 8.576 4.48 18.176 13.184 20.48 21.76 4.992 18.304 5.376 37.76 7.808 57.472-8.192 0.768-12.416 0.896-16.64 1.536-31.36 4.352-63.104 6.656-93.952 13.696-78.592 17.92-118.272 69.248-115.328 145.664 1.92 51.456 31.36 91.776 78.848 102.4 53.248 11.904 102.784 3.456 144.128-35.584 4.992-4.736 9.984-9.6 14.336-13.696 12.928 14.592 24.96 29.44 38.272 42.88 10.752 10.88 17.664 10.496 29.44 0.512 15.616-13.184 30.976-26.624 46.336-40.064 14.848-13.184 15.488-16.768 2.944-32.256z m-145.92-25.984c-8.448 13.696-19.072 24.704-34.56 30.208-29.696 10.624-56.704-5.12-62.08-36.352-7.552-44.032 12.8-76.416 56.448-86.656 17.408-4.096 35.84-4.608 55.424-6.912 0.512 36.608 3.328 69.76-15.232 99.712z" /></svg>